<svg xmlns="http://www.w3.org/2000/svg" xmlns:xlink="http://www.w3.org/1999/xlink" width="500" zoomAndPan="magnify" viewBox="0 0 375 374.999991" height="500" preserveAspectRatio="xMidYMid meet" version="1.0"><defs><filter x="0%" y="0%" width="100%" height="100%" id="8ebe2de9d9"><feColorMatrix values="0 0 0 0 1 0 0 0 0 1 0 0 0 0 1 0 0 0 1 0" color-interpolation-filters="sRGB"/></filter><clipPath id="ec29c48382"><path d="M 3.363281 13 L 46.554688 13 L 46.554688 70.609375 L 3.363281 70.609375 Z M 3.363281 13 " clip-rule="nonzero"/></clipPath><clipPath id="c3b69fc936"><path d="M 3.363281 56.210938 L 3.363281 27.417969 L 46.554688 13.019531 L 46.554688 70.609375 Z M 3.363281 56.210938 " clip-rule="nonzero"/></clipPath><clipPath id="634b45b310"><path d="M 0.363281 0 L 43.554688 0 L 43.554688 57.609375 L 0.363281 57.609375 Z M 0.363281 0 " clip-rule="nonzero"/></clipPath><clipPath id="e61235f395"><path d="M 0.363281 43.210938 L 0.363281 14.417969 L 43.554688 0.0195312 L 43.554688 57.609375 Z M 0.363281 43.210938 " clip-rule="nonzero"/></clipPath><clipPath id="14a3df0420"><rect x="0" width="44" y="0" height="58"/></clipPath><clipPath id="4e4258318c"><path d="M 3 56 L 37 56 L 37 76 L 3 76 Z M 3 56 " clip-rule="nonzero"/></clipPath><clipPath id="1646f019b0"><path d="M 1.015625 61.773438 L 5.824219 50.890625 L 36.289062 64.347656 L 31.484375 75.226562 Z M 1.015625 61.773438 " clip-rule="nonzero"/></clipPath><clipPath id="cd9040745b"><path d="M 1.015625 61.773438 L 5.824219 50.890625 L 36.289062 64.347656 L 31.484375 75.226562 Z M 1.015625 61.773438 " clip-rule="nonzero"/></clipPath><clipPath id="6824be5e8b"><path d="M 3 8 L 36 8 L 36 29 L 3 29 Z M 3 8 " clip-rule="nonzero"/></clipPath><clipPath id="b308b37f0d"><path d="M 5.789062 33.355469 L 0.753906 22.582031 L 30.929688 8.484375 L 35.964844 19.257812 Z M 5.789062 33.355469 " clip-rule="nonzero"/></clipPath><clipPath id="6880a81f10"><path d="M 5.789062 33.355469 L 0.753906 22.582031 L 30.929688 8.484375 L 35.964844 19.257812 Z M 5.789062 33.355469 " clip-rule="nonzero"/></clipPath><clipPath id="ee9fb42e5b"><path d="M 30 7 L 75 7 L 75 24 L 30 24 Z M 30 7 " clip-rule="nonzero"/></clipPath><clipPath id="b566d776d5"><path d="M 72.90625 0.101562 L 75.90625 14.867188 L 33.167969 23.546875 L 30.167969 8.785156 Z M 72.90625 0.101562 " clip-rule="nonzero"/></clipPath><clipPath id="5beca5bd2e"><path d="M 72.90625 0.101562 L 75.90625 14.867188 L 33.167969 23.546875 L 30.167969 8.785156 Z M 72.90625 0.101562 " clip-rule="nonzero"/></clipPath><clipPath id="f92b103d30"><path d="M 31 60 L 76 60 L 76 80 L 31 80 Z M 31 60 " clip-rule="nonzero"/></clipPath><clipPath id="a60f7c9e69"><path d="M 77.300781 72.253906 L 73.308594 86.78125 L 31.253906 75.226562 L 35.246094 60.699219 Z M 77.300781 72.253906 " clip-rule="nonzero"/></clipPath><clipPath id="2aab2bfdfd"><path d="M 77.300781 72.253906 L 73.308594 86.78125 L 31.253906 75.226562 L 35.246094 60.699219 Z M 77.300781 72.253906 " clip-rule="nonzero"/></clipPath><clipPath id="a1097d98e9"><path d="M 70.386719 7.75 L 186.992188 7.75 L 186.992188 79.3125 L 70.386719 79.3125 Z M 70.386719 7.75 " clip-rule="nonzero"/></clipPath><clipPath id="c0d3d03f3e"><path d="M 0.386719 0.75 L 116.992188 0.75 L 116.992188 72.3125 L 0.386719 72.3125 Z M 0.386719 0.75 " clip-rule="nonzero"/></clipPath><clipPath id="2b73b56b55"><rect x="0" width="117" y="0" height="73"/></clipPath><clipPath id="6e1ea6c6fb"><path d="M 24.957031 7.648438 L 73.875 7.648438 L 73.875 79.304688 L 24.957031 79.304688 Z M 24.957031 7.648438 " clip-rule="nonzero"/></clipPath><clipPath id="1f9783d2d1"><path d="M 24.957031 62.261719 L 24.957031 24.789062 L 73.875 7.746094 L 73.875 79.304688 Z M 24.957031 62.261719 " clip-rule="nonzero"/></clipPath><clipPath id="c50cc53228"><path d="M 0.957031 0.679688 L 49.875 0.679688 L 49.875 72.304688 L 0.957031 72.304688 Z M 0.957031 0.679688 " clip-rule="nonzero"/></clipPath><clipPath id="a399a37f0b"><path d="M 0.957031 55.261719 L 0.957031 17.789062 L 49.875 0.746094 L 49.875 72.304688 Z M 0.957031 55.261719 " clip-rule="nonzero"/></clipPath><clipPath id="25a6127b01"><rect x="0" width="50" y="0" height="73"/></clipPath><clipPath id="05fa643922"><path d="M 183.503906 7.6875 L 243.675781 7.6875 L 243.675781 79.355469 L 183.503906 79.355469 Z M 183.503906 7.6875 " clip-rule="nonzero"/></clipPath><clipPath id="e22880ac0f"><path d="M 242.265625 41.199219 L 187.359375 8.066406 C 186.574219 7.589844 185.59375 7.578125 184.796875 8.027344 C 184 8.476562 183.503906 9.324219 183.503906 10.238281 L 183.503906 76.808594 C 183.503906 77.726562 184 78.570312 184.796875 79.023438 C 185.59375 79.472656 186.574219 79.457031 187.359375 78.984375 L 242.265625 45.851562 C 243.082031 45.359375 243.578125 44.476562 243.578125 43.523438 C 243.578125 42.574219 243.082031 41.691406 242.265625 41.199219 Z M 242.265625 41.199219 " clip-rule="nonzero"/></clipPath><clipPath id="d48d053fcb"><path d="M 0.503906 0.6875 L 60.675781 0.6875 L 60.675781 72.355469 L 0.503906 72.355469 Z M 0.503906 0.6875 " clip-rule="nonzero"/></clipPath><clipPath id="578ebc82c5"><path d="M 59.265625 34.199219 L 4.359375 1.066406 C 3.574219 0.589844 2.59375 0.578125 1.796875 1.027344 C 1 1.476562 0.503906 2.324219 0.503906 3.238281 L 0.503906 69.808594 C 0.503906 70.726562 1 71.570312 1.796875 72.023438 C 2.59375 72.472656 3.574219 72.457031 4.359375 71.984375 L 59.265625 38.851562 C 60.082031 38.359375 60.578125 37.476562 60.578125 36.523438 C 60.578125 35.574219 60.082031 34.691406 59.265625 34.199219 Z M 59.265625 34.199219 " clip-rule="nonzero"/></clipPath><clipPath id="3339fbcbec"><rect x="0" width="61" y="0" height="73"/></clipPath><clipPath id="3c2e68fcb2"><path d="M 5.488281 13.644531 L 47.644531 13.644531 L 47.644531 69.964844 L 5.488281 69.964844 Z M 5.488281 13.644531 " clip-rule="nonzero"/></clipPath><clipPath id="8729925df5"><path d="M 5.488281 55.910156 L 5.488281 27.804688 L 47.644531 13.753906 L 47.644531 69.964844 Z M 5.488281 55.910156 " clip-rule="nonzero"/></clipPath><clipPath id="00d8c93810"><path d="M 0.488281 0.679688 L 42.644531 0.679688 L 42.644531 56.964844 L 0.488281 56.964844 Z M 0.488281 0.679688 " clip-rule="nonzero"/></clipPath><clipPath id="2187c517f4"><path d="M 0.488281 42.910156 L 0.488281 14.804688 L 42.644531 0.753906 L 42.644531 56.964844 Z M 0.488281 42.910156 " clip-rule="nonzero"/></clipPath><clipPath id="7a25103ea3"><rect x="0" width="43" y="0" height="57"/></clipPath><clipPath id="a8749c31d6"><path d="M 5 56 L 38 56 L 38 75 L 5 75 Z M 5 56 " clip-rule="nonzero"/></clipPath><clipPath id="fb3e603df4"><path d="M 3.199219 61.335938 L 7.683594 51.179688 L 37.425781 64.316406 L 32.941406 74.472656 Z M 3.199219 61.335938 " clip-rule="nonzero"/></clipPath><clipPath id="46e2f8975e"><path d="M 3.199219 61.335938 L 7.683594 51.179688 L 37.425781 64.316406 L 32.941406 74.472656 Z M 3.199219 61.335938 " clip-rule="nonzero"/></clipPath><clipPath id="f159f0f65b"><path d="M 5 9 L 38 9 L 38 29 L 5 29 Z M 5 9 " clip-rule="nonzero"/></clipPath><clipPath id="4e70ed4805"><path d="M 7.859375 33.601562 L 3.160156 23.542969 L 32.617188 9.78125 L 37.316406 19.839844 Z M 7.859375 33.601562 " clip-rule="nonzero"/></clipPath><clipPath id="479cef2fac"><path d="M 7.859375 33.601562 L 3.160156 23.542969 L 32.617188 9.78125 L 37.316406 19.839844 Z M 7.859375 33.601562 " clip-rule="nonzero"/></clipPath><clipPath id="996e9875f6"><path d="M 31 8 L 75 8 L 75 25 L 31 25 Z M 31 8 " clip-rule="nonzero"/></clipPath><clipPath id="adf126c464"><path d="M 73.363281 1.144531 L 76.363281 15.90625 L 34.398438 24.433594 L 31.402344 9.667969 Z M 73.363281 1.144531 " clip-rule="nonzero"/></clipPath><clipPath id="f6d06e1166"><path d="M 73.363281 1.144531 L 76.363281 15.90625 L 34.398438 24.433594 L 31.402344 9.667969 Z M 73.363281 1.144531 " clip-rule="nonzero"/></clipPath><clipPath id="b0e0195ce4"><path d="M 32 60 L 76 60 L 76 79 L 32 79 Z M 32 60 " clip-rule="nonzero"/></clipPath><clipPath id="e35920dfe5"><path d="M 77.652344 71.570312 L 73.660156 86.097656 L 32.371094 74.753906 L 36.359375 60.226562 Z M 77.652344 71.570312 " clip-rule="nonzero"/></clipPath><clipPath id="c21c50df23"><path d="M 77.652344 71.570312 L 73.660156 86.097656 L 32.371094 74.753906 L 36.359375 60.226562 Z M 77.652344 71.570312 " clip-rule="nonzero"/></clipPath><clipPath id="4c9ebd0c42"><path d="M 70.90625 8.605469 L 184.722656 8.605469 L 184.722656 78.453125 L 70.90625 78.453125 Z M 70.90625 8.605469 " clip-rule="nonzero"/></clipPath><clipPath id="b9f5f2847f"><path d="M 0.90625 0.605469 L 114.722656 0.605469 L 114.722656 70.453125 L 0.90625 70.453125 Z M 0.90625 0.605469 " clip-rule="nonzero"/></clipPath><clipPath id="ff8ff3506f"><rect x="0" width="115" y="0" height="71"/></clipPath><clipPath id="e1158cba0b"><path d="M 26.566406 8.503906 L 74.316406 8.503906 L 74.316406 78.449219 L 26.566406 78.449219 Z M 26.566406 8.503906 " clip-rule="nonzero"/></clipPath><clipPath id="e46d302d23"><path d="M 26.566406 61.8125 L 26.566406 25.234375 L 74.316406 8.597656 L 74.316406 78.449219 Z M 26.566406 61.8125 " clip-rule="nonzero"/></clipPath><clipPath id="e99ea75414"><path d="M 0.566406 0.503906 L 48.316406 0.503906 L 48.316406 70.449219 L 0.566406 70.449219 Z M 0.566406 0.503906 " clip-rule="nonzero"/></clipPath><clipPath id="e2ee79021c"><path d="M 0.566406 53.8125 L 0.566406 17.234375 L 48.316406 0.597656 L 48.316406 70.449219 Z M 0.566406 53.8125 " clip-rule="nonzero"/></clipPath><clipPath id="b92f8d1b7f"><rect x="0" width="49" y="0" height="71"/></clipPath><clipPath id="abb1769b84"><path d="M 181.320312 8.542969 L 240 8.542969 L 240 78.496094 L 181.320312 78.496094 Z M 181.320312 8.542969 " clip-rule="nonzero"/></clipPath><clipPath id="9e555ada37"><path d="M 238.582031 41.199219 L 185.171875 8.96875 C 184.386719 8.492188 183.410156 8.480469 182.609375 8.929688 C 181.8125 9.382812 181.320312 10.226562 181.320312 11.144531 L 181.320312 75.90625 C 181.320312 76.820312 181.8125 77.667969 182.609375 78.117188 C 183.410156 78.566406 184.386719 78.554688 185.171875 78.078125 L 238.582031 45.847656 C 239.398438 45.355469 239.894531 44.476562 239.894531 43.523438 C 239.894531 42.574219 239.398438 41.691406 238.582031 41.199219 Z M 238.582031 41.199219 " clip-rule="nonzero"/></clipPath><clipPath id="302e268653"><path d="M 0.320312 0.542969 L 59 0.542969 L 59 70.496094 L 0.320312 70.496094 Z M 0.320312 0.542969 " clip-rule="nonzero"/></clipPath><clipPath id="9b9a00a826"><path d="M 57.582031 33.199219 L 4.171875 0.96875 C 3.386719 0.492188 2.410156 0.480469 1.609375 0.929688 C 0.8125 1.382812 0.320312 2.226562 0.320312 3.144531 L 0.320312 67.90625 C 0.320312 68.820312 0.8125 69.667969 1.609375 70.117188 C 2.410156 70.566406 3.386719 70.554688 4.171875 70.078125 L 57.582031 37.847656 C 58.398438 37.355469 58.894531 36.476562 58.894531 35.523438 C 58.894531 34.574219 58.398438 33.691406 57.582031 33.199219 Z M 57.582031 33.199219 " clip-rule="nonzero"/></clipPath><clipPath id="f49ca0d3c5"><rect x="0" width="59" y="0" height="71"/></clipPath><clipPath id="980927ecbd"><path d="M 8.375 14.101562 L 49.222656 14.101562 L 49.222656 68.675781 L 8.375 68.675781 Z M 8.375 14.101562 " clip-rule="nonzero"/></clipPath><clipPath id="ebb2cf9aa5"><path d="M 8.375 55.058594 L 8.375 27.824219 L 49.222656 14.207031 L 49.222656 68.675781 Z M 8.375 55.058594 " clip-rule="nonzero"/></clipPath><clipPath id="c4bb5dfbde"><path d="M 0.375 0.160156 L 41.222656 0.160156 L 41.222656 54.675781 L 0.375 54.675781 Z M 0.375 0.160156 " clip-rule="nonzero"/></clipPath><clipPath id="6b776b4bad"><path d="M 0.375 41.058594 L 0.375 13.824219 L 41.222656 0.207031 L 41.222656 54.675781 Z M 0.375 41.058594 " clip-rule="nonzero"/></clipPath><clipPath id="152e0c3585"><rect x="0" width="42" y="0" height="55"/></clipPath><clipPath id="02cf1a2936"><path d="M 8 55 L 40 55 L 40 74 L 8 74 Z M 8 55 " clip-rule="nonzero"/></clipPath><clipPath id="75432baa64"><path d="M 6.15625 60.316406 L 10.640625 50.160156 L 39.65625 62.976562 L 35.167969 73.132812 Z M 6.15625 60.316406 " clip-rule="nonzero"/></clipPath><clipPath id="019560805c"><path d="M 6.15625 60.316406 L 10.640625 50.160156 L 39.65625 62.976562 L 35.167969 73.132812 Z M 6.15625 60.316406 " clip-rule="nonzero"/></clipPath><clipPath id="e37ac0690d"><path d="M 8 10 L 40 10 L 40 29 L 8 29 Z M 8 10 " clip-rule="nonzero"/></clipPath><clipPath id="ef3450bf7e"><path d="M 10.664062 33.441406 L 5.964844 23.382812 L 34.703125 9.957031 L 39.402344 20.015625 Z M 10.664062 33.441406 " clip-rule="nonzero"/></clipPath><clipPath id="969a51b8f8"><path d="M 10.664062 33.441406 L 5.964844 23.382812 L 34.703125 9.957031 L 39.402344 20.015625 Z M 10.664062 33.441406 " clip-rule="nonzero"/></clipPath><clipPath id="dffe47e05a"><path d="M 33 9 L 76 9 L 76 25 L 33 25 Z M 33 9 " clip-rule="nonzero"/></clipPath><clipPath id="dfacffe50c"><path d="M 74.148438 1.996094 L 76.988281 15.984375 L 36.582031 24.191406 L 33.738281 10.207031 Z M 74.148438 1.996094 " clip-rule="nonzero"/></clipPath><clipPath id="f1adb8ab4a"><path d="M 74.148438 1.996094 L 76.988281 15.984375 L 36.582031 24.191406 L 33.738281 10.207031 Z M 74.148438 1.996094 " clip-rule="nonzero"/></clipPath><clipPath id="23a4fe9709"><path d="M 34 59 L 77 59 L 77 78 L 34 78 Z M 34 59 " clip-rule="nonzero"/></clipPath><clipPath id="16aa69fb28"><path d="M 78.304688 70.238281 L 74.523438 84.003906 L 34.761719 73.078125 L 38.542969 59.316406 Z M 78.304688 70.238281 " clip-rule="nonzero"/></clipPath><clipPath id="84e8912a84"><path d="M 78.304688 70.238281 L 74.523438 84.003906 L 34.761719 73.078125 L 38.542969 59.316406 Z M 78.304688 70.238281 " clip-rule="nonzero"/></clipPath><clipPath id="caa51dc886"><path d="M 71.765625 9.226562 L 182.050781 9.226562 L 182.050781 76.90625 L 71.765625 76.90625 Z M 71.765625 9.226562 " clip-rule="nonzero"/></clipPath><clipPath id="1a6faa02cf"><path d="M 0.765625 0.226562 L 111.050781 0.226562 L 111.050781 67.90625 L 0.765625 67.90625 Z M 0.765625 0.226562 " clip-rule="nonzero"/></clipPath><clipPath id="9e73771a31"><rect x="0" width="112" y="0" height="68"/></clipPath><clipPath id="db234795f0"><path d="M 28.796875 9.128906 L 75.0625 9.128906 L 75.0625 76.902344 L 28.796875 76.902344 Z M 28.796875 9.128906 " clip-rule="nonzero"/></clipPath><clipPath id="67b9defdea"><path d="M 28.796875 60.78125 L 28.796875 25.339844 L 75.0625 9.21875 L 75.0625 76.902344 Z M 28.796875 60.78125 " clip-rule="nonzero"/></clipPath><clipPath id="e7e0b64cc8"><path d="M 0.796875 0.128906 L 47.0625 0.128906 L 47.0625 67.902344 L 0.796875 67.902344 Z M 0.796875 0.128906 " clip-rule="nonzero"/></clipPath><clipPath id="753769a9d9"><path d="M 0.796875 51.78125 L 0.796875 16.339844 L 47.0625 0.21875 L 47.0625 67.902344 Z M 0.796875 51.78125 " clip-rule="nonzero"/></clipPath><clipPath id="387176d1a5"><rect x="0" width="48" y="0" height="68"/></clipPath><clipPath id="aa156ed558"><path d="M 178.75 9.164062 L 235.660156 9.164062 L 235.660156 76.945312 L 178.75 76.945312 Z M 178.75 9.164062 " clip-rule="nonzero"/></clipPath><clipPath id="f6695bf116"><path d="M 234.121094 40.734375 L 182.605469 9.644531 C 181.820312 9.171875 180.839844 9.15625 180.042969 9.609375 C 179.246094 10.058594 178.75 10.902344 178.75 11.820312 L 178.75 74.296875 C 178.75 75.210938 179.246094 76.058594 180.042969 76.507812 C 180.839844 76.957031 181.820312 76.945312 182.605469 76.46875 L 234.121094 45.382812 C 234.933594 44.890625 235.433594 44.007812 235.433594 43.058594 C 235.433594 42.105469 234.933594 41.222656 234.121094 40.734375 Z M 234.121094 40.734375 " clip-rule="nonzero"/></clipPath><clipPath id="e70af1fc87"><path d="M 0.75 0.164062 L 57.519531 0.164062 L 57.519531 67.945312 L 0.75 67.945312 Z M 0.75 0.164062 " clip-rule="nonzero"/></clipPath><clipPath id="b588ebf070"><path d="M 56.121094 31.734375 L 4.605469 0.644531 C 3.820312 0.171875 2.839844 0.15625 2.042969 0.609375 C 1.246094 1.058594 0.75 1.902344 0.75 2.820312 L 0.75 65.296875 C 0.75 66.210938 1.246094 67.058594 2.042969 67.507812 C 2.839844 67.957031 3.820312 67.945312 4.605469 67.46875 L 56.121094 36.382812 C 56.933594 35.890625 57.433594 35.007812 57.433594 34.058594 C 57.433594 33.105469 56.933594 32.222656 56.121094 31.734375 Z M 56.121094 31.734375 " clip-rule="nonzero"/></clipPath><clipPath id="e81f9fe9e8"><rect x="0" width="58" y="0" height="68"/></clipPath><mask id="6d61d70280"><g filter="url(#8ebe2de9d9)"><rect x="-146.5" width="540" fill="#000000" y="-226.499998" height="539.999987" fill-opacity="0.25"/></g></mask><clipPath id="cf0e16f107"><path d="M 0.328125 0.820312 L 27.289062 0.820312 L 27.289062 12.179688 L 0.328125 12.179688 Z M 0.328125 0.820312 " clip-rule="nonzero"/></clipPath><clipPath id="554bebcc76"><path d="M 0.328125 0.820312 L 27.289062 0.820312 L 27.289062 12.179688 L 0.328125 12.179688 Z M 0.328125 0.820312 " clip-rule="nonzero"/></clipPath><clipPath id="a33d0f742d"><rect x="0" width="28" y="0" height="13"/></clipPath><clipPath id="7f69e7aff7"><rect x="0" width="28" y="0" height="13"/></clipPath><mask id="5ff82587a7"><g filter="url(#8ebe2de9d9)"><rect x="-146.5" width="540" fill="#000000" y="-226.499998" height="539.999987" fill-opacity="0.25"/></g></mask><clipPath id="ce80003081"><path d="M 0.226562 1.078125 L 27.902344 1.078125 L 27.902344 34.914062 L 0.226562 34.914062 Z M 0.226562 1.078125 " clip-rule="nonzero"/></clipPath><clipPath id="1cd75c6799"><path d="M 26.925781 23.652344 C 27.515625 21.921875 27.902344 19.953125 27.902344 18.023438 C 27.902344 16.089844 27.570312 14.234375 26.980469 12.519531 C 26.964844 12.484375 26.964844 12.445312 26.945312 12.410156 C 24.589844 5.976562 18.371094 1.238281 11.414062 1.148438 L 0.226562 1.148438 L 0.226562 34.914062 L 11.40625 34.914062 C 18.410156 34.824219 24.625 30.160156 26.925781 23.652344 Z M 26.925781 23.652344 " clip-rule="nonzero"/></clipPath><clipPath id="5642c0b683"><path d="M 0.226562 0.078125 L 27.902344 0.078125 L 27.902344 33.914062 L 0.226562 33.914062 Z M 0.226562 0.078125 " clip-rule="nonzero"/></clipPath><clipPath id="c437a0fe36"><path d="M 26.925781 22.652344 C 27.515625 20.921875 27.902344 18.953125 27.902344 17.023438 C 27.902344 15.089844 27.570312 13.234375 26.980469 11.519531 C 26.964844 11.484375 26.964844 11.445312 26.945312 11.410156 C 24.589844 4.976562 18.371094 0.238281 11.414062 0.148438 L 0.226562 0.148438 L 0.226562 33.914062 L 11.40625 33.914062 C 18.410156 33.824219 24.625 29.160156 26.925781 22.652344 Z M 26.925781 22.652344 " clip-rule="nonzero"/></clipPath><clipPath id="73109cadcc"><rect x="0" width="28" y="0" height="34"/></clipPath><clipPath id="2b7af8971a"><rect x="0" width="29" y="0" height="35"/></clipPath><mask id="1cf6895219"><g filter="url(#8ebe2de9d9)"><rect x="-146.5" width="540" fill="#000000" y="-226.499998" height="539.999987" fill-opacity="0.25"/></g></mask><clipPath id="b1bc6eaaeb"><path d="M 0.472656 0.976562 L 40.046875 0.976562 L 40.046875 35.089844 L 0.472656 35.089844 Z M 0.472656 0.976562 " clip-rule="nonzero"/></clipPath><clipPath id="3c98b7e891"><path d="M 1.460938 12.355469 C 0.867188 14.101562 0.476562 16.089844 0.476562 18.042969 C 0.476562 19.992188 0.808594 21.871094 1.40625 23.601562 C 1.421875 23.640625 1.421875 23.675781 1.441406 23.710938 C 3.820312 30.210938 10.101562 34.996094 17.390625 35.089844 L 40.046875 35.089844 L 40.046875 0.976562 L 17.40625 0.976562 C 10.066406 1.070312 3.78125 5.78125 1.460938 12.355469 Z M 1.460938 12.355469 " clip-rule="nonzero"/></clipPath><clipPath id="dfebc3ac22"><path d="M 0.472656 0.976562 L 40.046875 0.976562 L 40.046875 35.089844 L 0.472656 35.089844 Z M 0.472656 0.976562 " clip-rule="nonzero"/></clipPath><clipPath id="b539d46751"><path d="M 1.460938 12.355469 C 0.867188 14.101562 0.476562 16.089844 0.476562 18.042969 C 0.476562 19.992188 0.808594 21.871094 1.40625 23.601562 C 1.421875 23.640625 1.421875 23.675781 1.441406 23.710938 C 3.820312 30.210938 10.101562 34.996094 17.390625 35.089844 L 40.046875 35.089844 L 40.046875 0.976562 L 17.40625 0.976562 C 10.066406 1.070312 3.78125 5.78125 1.460938 12.355469 Z M 1.460938 12.355469 " clip-rule="nonzero"/></clipPath><clipPath id="eef560985f"><rect x="0" width="41" y="0" height="36"/></clipPath><clipPath id="d98bd5d8f9"><rect x="0" width="41" y="0" height="36"/></clipPath><clipPath id="fdc127582d"><path d="M 61.773438 27.941406 L 99.039062 27.941406 L 99.039062 58.132812 L 61.773438 58.132812 Z M 61.773438 27.941406 " clip-rule="nonzero"/></clipPath><clipPath id="5dd4efa3e9"><path d="M 62.753906 38.007812 C 62.226562 39.558594 61.882812 41.316406 61.882812 43.042969 C 61.882812 44.769531 62.175781 46.433594 62.703125 47.964844 C 62.71875 47.996094 62.71875 48.03125 62.738281 48.0625 C 64.84375 53.8125 70.402344 58.050781 76.898438 58.132812 L 99.039062 58.132812 L 99.039062 27.941406 L 76.914062 27.941406 C 70.371094 28.023438 64.808594 32.191406 62.753906 38.007812 Z M 62.753906 38.007812 " clip-rule="nonzero"/></clipPath><clipPath id="fbfe9e1551"><path d="M 0.773438 0.941406 L 38.039062 0.941406 L 38.039062 31.132812 L 0.773438 31.132812 Z M 0.773438 0.941406 " clip-rule="nonzero"/></clipPath><clipPath id="df7cd37161"><path d="M 1.753906 11.007812 C 1.226562 12.558594 0.882812 14.316406 0.882812 16.042969 C 0.882812 17.769531 1.175781 19.433594 1.703125 20.964844 C 1.71875 20.996094 1.71875 21.03125 1.738281 21.0625 C 3.84375 26.8125 9.402344 31.050781 15.898438 31.132812 L 38.039062 31.132812 L 38.039062 0.941406 L 15.914062 0.941406 C 9.371094 1.023438 3.808594 5.191406 1.753906 11.007812 Z M 1.753906 11.007812 " clip-rule="nonzero"/></clipPath><clipPath id="57aa215547"><rect x="0" width="39" y="0" height="32"/></clipPath><clipPath id="e6ba85492f"><path d="M 61.894531 27.941406 L 99.039062 27.941406 L 99.039062 58.074219 L 61.894531 58.074219 Z M 61.894531 27.941406 " clip-rule="nonzero"/></clipPath><clipPath id="fe0393d915"><path d="M 62.765625 38.007812 C 62.238281 39.554688 61.894531 41.3125 61.894531 43.039062 C 61.894531 44.765625 62.191406 46.425781 62.714844 47.957031 C 62.730469 47.992188 62.730469 48.023438 62.75 48.054688 C 64.851562 53.804688 70.410156 58.039062 76.90625 58.121094 L 99.039062 58.121094 L 99.039062 27.941406 L 76.921875 27.941406 C 70.378906 28.023438 64.820312 32.191406 62.765625 38.007812 Z M 62.765625 38.007812 " clip-rule="nonzero"/></clipPath><mask id="4ce9a2aaf4"><g filter="url(#8ebe2de9d9)"><rect x="-146.5" width="540" fill="#000000" y="-226.499998" height="539.999987" fill-opacity="0.25"/></g></mask><clipPath id="a3f44ce011"><path d="M 0.46875 0.359375 L 30 0.359375 L 30 11.714844 L 0.46875 11.714844 Z M 0.46875 0.359375 " clip-rule="nonzero"/></clipPath><clipPath id="6cfeabfdc0"><path d="M 0.46875 0.359375 L 30 0.359375 L 30 11.714844 L 0.46875 11.714844 Z M 0.46875 0.359375 " clip-rule="nonzero"/></clipPath><clipPath id="1e3b59a4c5"><rect x="0" width="30" y="0" height="12"/></clipPath><clipPath id="8ca4279169"><rect x="0" width="31" y="0" height="12"/></clipPath><clipPath id="a8675a5083"><path d="M 146.226562 27.914062 L 172.351562 27.914062 L 172.351562 58.125 L 146.226562 58.125 Z M 146.226562 27.914062 " clip-rule="nonzero"/></clipPath><clipPath id="e2c771677b"><path d="M 171.480469 48.054688 C 172.007812 46.507812 172.351562 44.75 172.351562 43.019531 C 172.351562 41.292969 172.054688 39.632812 171.53125 38.101562 C 171.515625 38.066406 171.515625 38.035156 171.496094 38.003906 C 169.390625 32.25 163.832031 28.015625 157.578125 27.933594 L 146.226562 27.933594 L 146.226562 58.125 L 157.570312 58.125 C 163.863281 58.042969 169.425781 53.871094 171.480469 48.054688 Z M 171.480469 48.054688 " clip-rule="nonzero"/></clipPath><clipPath id="dd25458a90"><path d="M 0.226562 0.914062 L 26.351562 0.914062 L 26.351562 31.125 L 0.226562 31.125 Z M 0.226562 0.914062 " clip-rule="nonzero"/></clipPath><clipPath id="a948fe236b"><path d="M 25.480469 21.054688 C 26.007812 19.507812 26.351562 17.75 26.351562 16.019531 C 26.351562 14.292969 26.054688 12.632812 25.53125 11.101562 C 25.515625 11.066406 25.515625 11.035156 25.496094 11.003906 C 23.390625 5.25 17.832031 1.015625 11.578125 0.933594 L 0.226562 0.933594 L 0.226562 31.125 L 11.570312 31.125 C 17.863281 31.042969 23.425781 26.871094 25.480469 21.054688 Z M 25.480469 21.054688 " clip-rule="nonzero"/></clipPath><clipPath id="7d04c617c6"><rect x="0" width="27" y="0" height="32"/></clipPath><clipPath id="681de2c2fb"><path d="M 146.226562 27.992188 L 172.394531 27.992188 L 172.394531 58.125 L 146.226562 58.125 Z M 146.226562 27.992188 " clip-rule="nonzero"/></clipPath><clipPath id="b1e1c41e85"><path d="M 171.472656 48.058594 C 172 46.511719 172.34375 44.75 172.34375 43.023438 C 172.34375 41.296875 172.046875 39.636719 171.523438 38.105469 C 171.503906 38.074219 171.503906 38.042969 171.488281 38.007812 C 169.382812 32.257812 163.828125 28.023438 157.578125 27.941406 L 146.226562 27.941406 L 146.226562 58.125 L 157.566406 58.125 C 163.859375 58.042969 169.417969 53.871094 171.472656 48.058594 Z M 171.472656 48.058594 " clip-rule="nonzero"/></clipPath><clipPath id="b44e3bc2d3"><path d="M 80.46875 37.359375 L 108.800781 37.359375 L 108.800781 48.714844 L 80.46875 48.714844 Z M 80.46875 37.359375 " clip-rule="nonzero"/></clipPath><clipPath id="030b0f188d"><path d="M 0.46875 0.359375 L 28.800781 0.359375 L 28.800781 11.714844 L 0.46875 11.714844 Z M 0.46875 0.359375 " clip-rule="nonzero"/></clipPath><clipPath id="2a743858e0"><rect x="0" width="29" y="0" height="12"/></clipPath><clipPath id="96513f8a5d"><path d="M 80.476562 37.359375 L 108.789062 37.359375 L 108.789062 48.460938 L 80.476562 48.460938 Z M 80.476562 37.359375 " clip-rule="nonzero"/></clipPath><clipPath id="72cafe8397"><path d="M 134.050781 37.820312 L 159.289062 37.820312 L 159.289062 49.179688 L 134.050781 49.179688 Z M 134.050781 37.820312 " clip-rule="nonzero"/></clipPath><clipPath id="8f16428313"><path d="M 0.0507812 0.820312 L 25.289062 0.820312 L 25.289062 12.179688 L 0.0507812 12.179688 Z M 0.0507812 0.820312 " clip-rule="nonzero"/></clipPath><clipPath id="fcaeac7fb9"><rect x="0" width="26" y="0" height="13"/></clipPath><clipPath id="c7503a75d6"><path d="M 134.054688 37.820312 L 159.273438 37.820312 L 159.273438 48.921875 L 134.054688 48.921875 Z M 134.054688 37.820312 " clip-rule="nonzero"/></clipPath><clipPath id="c9cb3322d0"><rect x="0" width="247" y="0" height="88"/></clipPath></defs><g transform="matrix(1, 0, 0, 1, 64, 144)"><g clip-path="url(#c9cb3322d0)"><g clip-path="url(#ec29c48382)"><g clip-path="url(#c3b69fc936)"><g transform="matrix(1, 0, 0, 1, 3, 13)"><g clip-path="url(#14a3df0420)"><g clip-path="url(#634b45b310)"><g clip-path="url(#e61235f395)"><path fill="#000000" d="M 0.363281 57.609375 L 0.363281 0.078125 L 43.554688 0.078125 L 43.554688 57.609375 Z M 0.363281 57.609375 " fill-opacity="1" fill-rule="nonzero"/></g></g></g></g></g></g><g clip-path="url(#4e4258318c)"><g clip-path="url(#1646f019b0)"><g clip-path="url(#cd9040745b)"><path fill="#000000" d="M 36.410156 64.738281 L 31.730469 75.335938 L 3.375 56.480469 Z M 36.410156 64.738281 " fill-opacity="1" fill-rule="nonzero"/></g></g></g><g clip-path="url(#6824be5e8b)"><g clip-path="url(#b308b37f0d)"><g clip-path="url(#6880a81f10)"><path fill="#000000" d="M 31.304688 8.648438 L 36.207031 19.144531 L 3.351562 28.101562 Z M 31.304688 8.648438 " fill-opacity="1" fill-rule="nonzero"/></g></g></g><g clip-path="url(#ee9fb42e5b)"><g clip-path="url(#b566d776d5)"><g clip-path="url(#5beca5bd2e)"><path fill="#000000" d="M 32.832031 23.734375 L 29.8125 8.855469 L 74.40625 7.542969 Z M 32.832031 23.734375 " fill-opacity="1" fill-rule="nonzero"/></g></g></g><g clip-path="url(#f92b103d30)"><g clip-path="url(#a60f7c9e69)"><g clip-path="url(#2aab2bfdfd)"><path fill="#000000" d="M 30.875 75.242188 L 34.894531 60.601562 L 75.277344 79.570312 Z M 30.875 75.242188 " fill-opacity="1" fill-rule="nonzero"/></g></g></g><g clip-path="url(#a1097d98e9)"><g transform="matrix(1, 0, 0, 1, 70, 7)"><g clip-path="url(#2b73b56b55)"><g clip-path="url(#c0d3d03f3e)"><path fill="#000000" d="M 0.386719 0.75 L 116.953125 0.75 L 116.953125 72.3125 L 0.386719 72.3125 Z M 0.386719 0.75 " fill-opacity="1" fill-rule="nonzero"/></g></g></g></g><g clip-path="url(#6e1ea6c6fb)"><g clip-path="url(#1f9783d2d1)"><g transform="matrix(1, 0, 0, 1, 24, 7)"><g clip-path="url(#25a6127b01)"><g clip-path="url(#c50cc53228)"><g clip-path="url(#a399a37f0b)"><path fill="#000000" d="M 0.957031 72.304688 L 0.957031 0.839844 L 49.875 0.839844 L 49.875 72.304688 Z M 0.957031 72.304688 " fill-opacity="1" fill-rule="nonzero"/></g></g></g></g></g></g><g clip-path="url(#05fa643922)"><g clip-path="url(#e22880ac0f)"><g transform="matrix(1, 0, 0, 1, 183, 7)"><g clip-path="url(#3339fbcbec)"><g clip-path="url(#d48d053fcb)"><g clip-path="url(#578ebc82c5)"><path fill="#000000" d="M 0.503906 74.308594 L 0.503906 -1.269531 L 63.121094 -1.269531 L 63.121094 74.308594 Z M 0.503906 74.308594 " fill-opacity="1" fill-rule="nonzero"/></g></g></g></g></g></g><g clip-path="url(#3c2e68fcb2)"><g clip-path="url(#8729925df5)"><g transform="matrix(1, 0, 0, 1, 5, 13)"><g clip-path="url(#7a25103ea3)"><g clip-path="url(#00d8c93810)"><g clip-path="url(#2187c517f4)"><path fill="#504f4f" d="M 0.488281 56.964844 L 0.488281 0.808594 L 42.644531 0.808594 L 42.644531 56.964844 Z M 0.488281 56.964844 " fill-opacity="1" fill-rule="nonzero"/></g></g></g></g></g></g><g clip-path="url(#a8749c31d6)"><g clip-path="url(#fb3e603df4)"><g clip-path="url(#46e2f8975e)"><path fill="#504f4f" d="M 37.753906 64.226562 L 33.183594 74.578125 L 5.496094 56.164062 Z M 37.753906 64.226562 " fill-opacity="1" fill-rule="nonzero"/></g></g></g><g clip-path="url(#f159f0f65b)"><g clip-path="url(#4e70ed4805)"><g clip-path="url(#479cef2fac)"><path fill="#504f4f" d="M 32.765625 9.476562 L 37.554688 19.726562 L 5.472656 28.472656 Z M 32.765625 9.476562 " fill-opacity="1" fill-rule="nonzero"/></g></g></g><g clip-path="url(#996e9875f6)"><g clip-path="url(#adf126c464)"><g clip-path="url(#f6d06e1166)"><path fill="#504f4f" d="M 34.257812 24.199219 L 31.3125 9.6875 L 74.816406 8.402344 Z M 34.257812 24.199219 " fill-opacity="1" fill-rule="nonzero"/></g></g></g><g clip-path="url(#b0e0195ce4)"><g clip-path="url(#e35920dfe5)"><g clip-path="url(#c21c50df23)"><path fill="#504f4f" d="M 32.347656 74.480469 L 36.273438 60.199219 L 75.667969 78.703125 Z M 32.347656 74.480469 " fill-opacity="1" fill-rule="nonzero"/></g></g></g><g clip-path="url(#4c9ebd0c42)"><g transform="matrix(1, 0, 0, 1, 70, 8)"><g clip-path="url(#ff8ff3506f)"><g clip-path="url(#b9f5f2847f)"><path fill="#504f4f" d="M 0.90625 0.605469 L 114.683594 0.605469 L 114.683594 70.453125 L 0.90625 70.453125 Z M 0.90625 0.605469 " fill-opacity="1" fill-rule="nonzero"/></g></g></g></g><g clip-path="url(#e1158cba0b)"><g clip-path="url(#e46d302d23)"><g transform="matrix(1, 0, 0, 1, 26, 8)"><g clip-path="url(#b92f8d1b7f)"><g clip-path="url(#e99ea75414)"><g clip-path="url(#e2ee79021c)"><path fill="#504f4f" d="M 0.566406 70.449219 L 0.566406 0.691406 L 48.316406 0.691406 L 48.316406 70.449219 Z M 0.566406 70.449219 " fill-opacity="1" fill-rule="nonzero"/></g></g></g></g></g></g><g clip-path="url(#abb1769b84)"><g clip-path="url(#9e555ada37)"><g transform="matrix(1, 0, 0, 1, 181, 8)"><g clip-path="url(#f49ca0d3c5)"><g clip-path="url(#302e268653)"><g clip-path="url(#9b9a00a826)"><path fill="#504f4f" d="M 0.320312 72.40625 L 0.320312 -1.367188 L 61.4375 -1.367188 L 61.4375 72.40625 Z M 0.320312 72.40625 " fill-opacity="1" fill-rule="nonzero"/></g></g></g></g></g></g><g clip-path="url(#980927ecbd)"><g clip-path="url(#ebb2cf9aa5)"><g transform="matrix(1, 0, 0, 1, 8, 14)"><g clip-path="url(#152e0c3585)"><g clip-path="url(#c4bb5dfbde)"><g clip-path="url(#6b776b4bad)"><path fill="#6b6a6a" d="M 0.375 54.675781 L 0.375 0.261719 L 41.222656 0.261719 L 41.222656 54.675781 Z M 0.375 54.675781 " fill-opacity="1" fill-rule="nonzero"/></g></g></g></g></g></g><g clip-path="url(#02cf1a2936)"><g clip-path="url(#75432baa64)"><g clip-path="url(#019560805c)"><path fill="#504f4f" d="M 39.621094 63.121094 L 35.195312 73.144531 L 8.386719 55.316406 Z M 39.621094 63.121094 " fill-opacity="1" fill-rule="nonzero"/></g></g></g><g clip-path="url(#e37ac0690d)"><g clip-path="url(#ef3450bf7e)"><g clip-path="url(#969a51b8f8)"><path fill="#504f4f" d="M 34.792969 10.078125 L 39.429688 20.003906 L 8.367188 28.46875 Z M 34.792969 10.078125 " fill-opacity="1" fill-rule="nonzero"/></g></g></g><g clip-path="url(#dffe47e05a)"><g clip-path="url(#dfacffe50c)"><g clip-path="url(#f1adb8ab4a)"><path fill="#504f4f" d="M 36.253906 24.335938 L 33.394531 10.273438 L 75.554688 9.03125 Z M 36.253906 24.335938 " fill-opacity="1" fill-rule="nonzero"/></g></g></g><g clip-path="url(#23a4fe9709)"><g clip-path="url(#16aa69fb28)"><g clip-path="url(#84e8912a84)"><path fill="#504f4f" d="M 34.402344 73.058594 L 38.203125 59.222656 L 76.378906 77.152344 Z M 34.402344 73.058594 " fill-opacity="1" fill-rule="nonzero"/></g></g></g><g clip-path="url(#caa51dc886)"><g transform="matrix(1, 0, 0, 1, 71, 9)"><g clip-path="url(#9e73771a31)"><g clip-path="url(#1a6faa02cf)"><path fill="#6b6a6a" d="M 0.765625 0.226562 L 111.015625 0.226562 L 111.015625 67.90625 L 0.765625 67.90625 Z M 0.765625 0.226562 " fill-opacity="1" fill-rule="nonzero"/></g></g></g></g><g clip-path="url(#db234795f0)"><g clip-path="url(#67b9defdea)"><g transform="matrix(1, 0, 0, 1, 28, 9)"><g clip-path="url(#387176d1a5)"><g clip-path="url(#e7e0b64cc8)"><g clip-path="url(#753769a9d9)"><path fill="#6b6a6a" d="M 0.796875 67.902344 L 0.796875 0.308594 L 47.0625 0.308594 L 47.0625 67.902344 Z M 0.796875 67.902344 " fill-opacity="1" fill-rule="nonzero"/></g></g></g></g></g></g><g clip-path="url(#aa156ed558)"><g clip-path="url(#f6695bf116)"><g transform="matrix(1, 0, 0, 1, 178, 9)"><g clip-path="url(#e81f9fe9e8)"><g clip-path="url(#e70af1fc87)"><g clip-path="url(#b588ebf070)"><path fill="#6b6a6a" d="M 0.75 69.796875 L 0.75 -1.6875 L 59.972656 -1.6875 L 59.972656 69.796875 Z M 0.75 69.796875 " fill-opacity="1" fill-rule="nonzero"/></g></g></g></g></g></g><g mask="url(#6d61d70280)"><g transform="matrix(1, 0, 0, 1, 132, 37)"><g clip-path="url(#7f69e7aff7)"><g clip-path="url(#cf0e16f107)"><g transform="matrix(1, 0, 0, 1, -0.000000000000056843, 0)"><g clip-path="url(#a33d0f742d)"><g clip-path="url(#554bebcc76)"><path fill="#000000" d="M 0.328125 0.820312 L 27.300781 0.820312 L 27.300781 12.179688 L 0.328125 12.179688 Z M 0.328125 0.820312 " fill-opacity="1" fill-rule="nonzero"/></g></g></g></g></g></g></g><g mask="url(#5ff82587a7)"><g transform="matrix(1, 0, 0, 1, 146, 25)"><g clip-path="url(#2b7af8971a)"><g clip-path="url(#ce80003081)"><g clip-path="url(#1cd75c6799)"><g transform="matrix(1, 0, 0, 1, -0.000000000000028422, 1)"><g clip-path="url(#73109cadcc)"><g clip-path="url(#5642c0b683)"><g clip-path="url(#c437a0fe36)"><path fill="#000000" d="M 0.226562 33.914062 L 0.226562 0.1875 L 27.902344 0.1875 L 27.902344 33.914062 Z M 0.226562 33.914062 " fill-opacity="1" fill-rule="nonzero"/></g></g></g></g></g></g></g></g></g><g mask="url(#1cf6895219)"><g transform="matrix(1, 0, 0, 1, 59, 25)"><g clip-path="url(#d98bd5d8f9)"><g clip-path="url(#b1bc6eaaeb)"><g clip-path="url(#3c98b7e891)"><g transform="matrix(1, 0, 0, 1, -0.000000000000014211, 0)"><g clip-path="url(#eef560985f)"><g clip-path="url(#dfebc3ac22)"><g clip-path="url(#b539d46751)"><path fill="#000000" d="M 40.046875 0.976562 L 40.046875 35.089844 L 0.472656 35.089844 L 0.472656 0.976562 Z M 40.046875 0.976562 " fill-opacity="1" fill-rule="nonzero"/></g></g></g></g></g></g></g></g></g><g clip-path="url(#fdc127582d)"><g clip-path="url(#5dd4efa3e9)"><g transform="matrix(1, 0, 0, 1, 61, 27)"><g clip-path="url(#57aa215547)"><g clip-path="url(#fbfe9e1551)"><g clip-path="url(#df7cd37161)"><path fill="#7d7d7d" d="M 38.039062 0.941406 L 38.039062 31.132812 L 0.890625 31.132812 L 0.890625 0.941406 Z M 38.039062 0.941406 " fill-opacity="1" fill-rule="nonzero"/></g></g></g></g></g></g><g clip-path="url(#e6ba85492f)"><g clip-path="url(#fe0393d915)"><path stroke-linecap="butt" transform="matrix(0, 0.792977, -0.792977, 0, 99.039549, 27.940916)" fill="none" stroke-linejoin="miter" d="M 12.695075 45.744008 C 14.645795 46.409026 16.862522 46.84252 19.03984 46.84252 C 21.217159 46.84252 23.310735 46.468139 25.24175 45.808047 C 25.286085 45.788343 25.325493 45.788343 25.364902 45.763713 C 32.616062 43.113492 37.955911 36.103709 38.059359 27.91167 L 38.059359 0.000613503 L 0.000617749 0.000613503 L 0.000617749 27.891966 C 0.104065 36.143117 5.360171 43.152901 12.695075 45.744008 Z M 12.695075 45.744008 " stroke="#000000" stroke-width="1.891607" stroke-opacity="1" stroke-miterlimit="4"/></g></g><g mask="url(#4ce9a2aaf4)"><g transform="matrix(1, 0, 0, 1, 80, 37)"><g clip-path="url(#8ca4279169)"><g clip-path="url(#a3f44ce011)"><g transform="matrix(1, 0, 0, 1, -0.000000000000028422, 0)"><g clip-path="url(#1e3b59a4c5)"><g clip-path="url(#6cfeabfdc0)"><path fill="#000000" d="M 0.46875 0.359375 L 30.015625 0.359375 L 30.015625 11.714844 L 0.46875 11.714844 Z M 0.46875 0.359375 " fill-opacity="1" fill-rule="nonzero"/></g></g></g></g></g></g></g><g clip-path="url(#a8675a5083)"><g clip-path="url(#e2c771677b)"><g transform="matrix(1, 0, 0, 1, 146, 27)"><g clip-path="url(#7d04c617c6)"><g clip-path="url(#dd25458a90)"><g clip-path="url(#a948fe236b)"><path fill="#7d7d7d" d="M 0.226562 31.125 L 0.226562 0.914062 L 26.351562 0.914062 L 26.351562 31.125 Z M 0.226562 31.125 " fill-opacity="1" fill-rule="nonzero"/></g></g></g></g></g></g><g clip-path="url(#681de2c2fb)"><g clip-path="url(#b1e1c41e85)"><path stroke-linecap="butt" transform="matrix(0, -0.792977, 0.792977, 0, 146.225636, 58.123916)" fill="none" stroke-linejoin="miter" d="M 12.693089 31.838292 C 14.643809 32.50331 16.865462 32.936803 19.04278 32.936803 C 21.220099 32.936803 23.313674 32.562423 25.24469 31.902331 C 25.284098 31.877701 25.323507 31.877701 25.367841 31.857996 C 32.619001 29.20285 37.95885 22.197993 38.062297 14.316298 L 38.062297 0.00116801 L -0.00136659 0.00116801 L -0.00136659 14.301519 C 0.102081 22.237402 5.363112 29.247185 12.693089 31.838292 Z M 12.693089 31.838292 " stroke="#000000" stroke-width="1.891607" stroke-opacity="1" stroke-miterlimit="4"/></g></g><g clip-path="url(#b44e3bc2d3)"><g transform="matrix(1, 0, 0, 1, 80, 37)"><g clip-path="url(#2a743858e0)"><g clip-path="url(#030b0f188d)"><path fill="#8f8f8f" d="M 0.46875 0.359375 L 28.820312 0.359375 L 28.820312 11.714844 L 0.46875 11.714844 Z M 0.46875 0.359375 " fill-opacity="1" fill-rule="nonzero"/></g></g></g></g><g clip-path="url(#96513f8a5d)"><path stroke-linecap="butt" transform="matrix(0.792977, 0, 0, 0.792977, 80.476875, 37.358924)" fill="none" stroke-linejoin="miter" d="M -0.000394101 0.000569335 L 35.70369 0.000569335 L 35.70369 14.310774 L -0.000394101 14.310774 Z M -0.000394101 0.000569335 " stroke="#000000" stroke-width="1.891607" stroke-opacity="1" stroke-miterlimit="4"/></g><g clip-path="url(#72cafe8397)"><g transform="matrix(1, 0, 0, 1, 134, 37)"><g clip-path="url(#fcaeac7fb9)"><g clip-path="url(#8f16428313)"><path fill="#8f8f8f" d="M 0.0507812 0.820312 L 25.292969 0.820312 L 25.292969 12.179688 L 0.0507812 12.179688 Z M 0.0507812 0.820312 " fill-opacity="1" fill-rule="nonzero"/></g></g></g></g><g clip-path="url(#c7503a75d6)"><path stroke-linecap="butt" transform="matrix(0.792977, 0, 0, 0.792977, 134.052974, 37.821463)" fill="none" stroke-linejoin="miter" d="M 0.00216098 -0.00145059 L 31.804806 -0.00145059 L 31.804806 14.31368 L 0.00216098 14.31368 Z M 0.00216098 -0.00145059 " stroke="#000000" stroke-width="1.891607" stroke-opacity="1" stroke-miterlimit="4"/></g></g></g></svg>